g building_2
v 18.8014 141.4152 -18.80146
v 18.8014 141.4152 -0.0001293853
v 16.925 141.4152 -2.153879
v 18.8014 141.4152 -18.80146
v 16.925 141.4152 -2.153879
v 16.92516 141.4152 -16.72943
v 2.349453 141.4152 -2.154036
v 7.8125E-05 141.4152 -0.0001293853
v 7.8125E-05 141.4152 -18.80146
v 2.349453 141.4152 -2.154036
v 7.8125E-05 141.4152 -18.80146
v 2.349609 141.4152 -16.72958
v 18.80125 87.13079 -5.126035E-05
v 18.8014 141.4152 -0.0001293853
v 18.8014 141.4152 -18.80146
v 18.8014 87.13079 -18.8013
v 16.925 141.4152 -2.153879
v 16.92516 149.0938 -2.15384
v 16.92516 149.0938 -16.72958
v 16.92516 141.4152 -16.72943
v 16.92516 149.0938 -2.15384
v 11.77453 164.3317 -7.304543
v 11.77445 164.3317 -11.57888
v 16.92516 149.0938 -16.72958
v 11.77453 164.3317 -7.304543
v 12.255 166.0203 -6.88884
v 12.255 166.0203 -11.9947
v 11.77445 164.3317 -11.57888
v 12.255 166.0203 -6.88884
v 12.01883 166.8428 -7.119231
v 12.01875 166.8428 -11.76431
v 12.255 166.0203 -11.9947
v 12.01883 166.8428 -7.119231
v 7.255703 166.8428 -7.119192
v 7.255625 166.8428 -11.76427
v 12.01875 166.8428 -11.76431
v 18.8014 87.13079 -18.8013
v 18.8014 141.4152 -18.80146
v 7.8125E-05 141.4152 -18.80146
v 0.00015625 87.13079 -18.80146
v 0.00015625 87.13079 -18.80146
v 7.8125E-05 141.4152 -18.80146
v 7.8125E-05 141.4152 -0.0001293853
v -7.275957E-14 87.13079 -0.0002075103
v -7.275957E-14 87.13079 -0.0002075103
v 7.8125E-05 141.4152 -0.0001293853
v 18.8014 141.4152 -0.0001293853
v 18.80125 87.13079 -5.126035E-05
v 16.925 141.4152 -2.153879
v 2.349453 141.4152 -2.154036
v 2.349609 141.4152 -16.72958
v 16.92516 141.4152 -16.72943
v 18.8014 141.4152 -18.80146
v 16.92516 141.4152 -16.72943
v 2.349609 141.4152 -16.72958
v 7.8125E-05 141.4152 -18.80146
v 18.8014 141.4152 -0.0001293853
v 7.8125E-05 141.4152 -0.0001293853
v 2.349453 141.4152 -2.154036
v 16.925 141.4152 -2.153879
v 2.349609 141.4152 -16.72958
v 2.349453 149.0938 -16.72958
v 2.349453 149.0938 -2.15384
v 2.349453 141.4152 -2.154036
v 2.349453 149.0938 -16.72958
v 7.500078 164.3317 -11.57888
v 7.500078 164.3317 -7.304504
v 2.349453 149.0938 -2.15384
v 7.500078 164.3317 -11.57888
v 7.019453 166.0203 -11.99458
v 7.019531 166.0203 -6.888801
v 7.500078 164.3317 -7.304504
v 16.92516 141.4152 -16.72943
v 16.92516 149.0938 -16.72958
v 2.349453 149.0938 -16.72958
v 2.349609 141.4152 -16.72958
v 16.92516 149.0938 -16.72958
v 11.77445 164.3317 -11.57888
v 7.500078 164.3317 -11.57888
v 2.349453 149.0938 -16.72958
v 11.77445 164.3317 -11.57888
v 12.255 166.0203 -11.9947
v 7.019453 166.0203 -11.99458
v 7.500078 164.3317 -11.57888
v 2.349453 141.4152 -2.154036
v 2.349453 149.0938 -2.15384
v 16.92516 149.0938 -2.15384
v 16.925 141.4152 -2.153879
v 2.349453 149.0938 -2.15384
v 7.500078 164.3317 -7.304504
v 11.77453 164.3317 -7.304543
v 16.92516 149.0938 -2.15384
v 7.500078 164.3317 -7.304504
v 7.019531 166.0203 -6.888801
v 12.255 166.0203 -6.88884
v 11.77453 164.3317 -7.304543
v 7.019453 166.0203 -11.99458
v 7.255625 166.8428 -11.76427
v 7.255703 166.8428 -7.119192
v 7.019531 166.0203 -6.888801
v 12.255 166.0203 -11.9947
v 12.01875 166.8428 -11.76431
v 7.255625 166.8428 -11.76427
v 7.019453 166.0203 -11.99458
v 7.019531 166.0203 -6.888801
v 7.255703 166.8428 -7.119192
v 12.01883 166.8428 -7.119231
v 12.255 166.0203 -6.88884
v 18.8014 69.70463 -18.80122
v 18.8014 87.13079 -18.8013
v 0.00015625 87.13079 -18.80146
v 0.00015625 69.70463 -18.80138
v 0.00015625 69.70463 -18.80138
v 0.00015625 87.13079 -18.80146
v -7.275957E-14 87.13079 -0.0002075103
v -7.275957E-14 69.70463 -0.0001684478
v -7.275957E-14 69.70463 -0.0001684478
v -7.275957E-14 87.13079 -0.0002075103
v 18.80125 87.13079 -5.126035E-05
v 18.80125 69.70463 2.686465E-05
v 18.80125 69.70463 2.686465E-05
v 18.80125 87.13079 -5.126035E-05
v 18.8014 87.13079 -18.8013
v 18.8014 69.70463 -18.80122
v 18.8014 52.27847 -18.80114
v 18.8014 69.70463 -18.80122
v 0.00015625 69.70463 -18.80138
v 0.00015625 52.27848 -18.8013
v 0.00015625 52.27848 -18.8013
v 0.00015625 69.70463 -18.80138
v -7.275957E-14 69.70463 -0.0001684478
v -7.275957E-14 52.27848 -0.0001293853
v -7.275957E-14 52.27848 -0.0001293853
v -7.275957E-14 69.70463 -0.0001684478
v 18.80125 69.70463 2.686465E-05
v 18.80125 52.27847 6.592715E-05
v 18.80125 52.27847 6.592715E-05
v 18.80125 69.70463 2.686465E-05
v 18.8014 69.70463 -18.80122
v 18.8014 52.27847 -18.80114
v 18.8014 34.85231 -18.80111
v 18.8014 52.27847 -18.80114
v 0.00015625 52.27848 -18.8013
v 0.00015625 34.85231 -18.80126
v 0.00015625 34.85231 -18.80126
v 0.00015625 52.27848 -18.8013
v -7.275957E-14 52.27848 -0.0001293853
v -7.275957E-14 34.85231 -5.126035E-05
v -7.275957E-14 34.85231 -5.126035E-05
v -7.275957E-14 52.27848 -0.0001293853
v 18.80125 52.27847 6.592715E-05
v 18.80125 34.85231 0.0001049897
v 18.80125 34.85231 0.0001049897
v 18.80125 52.27847 6.592715E-05
v 18.8014 52.27847 -18.80114
v 18.8014 34.85231 -18.80111
v 18.8014 17.42615 -18.80103
v 18.8014 34.85231 -18.80111
v 0.00015625 34.85231 -18.80126
v 0.00015625 17.42615 -18.80122
v 0.00015625 17.42615 -18.80122
v 0.00015625 34.85231 -18.80126
v -7.275957E-14 34.85231 -5.126035E-05
v -7.275957E-14 17.42615 -5.126035E-05
v -7.275957E-14 17.42615 -5.126035E-05
v -7.275957E-14 34.85231 -5.126035E-05
v 18.80125 34.85231 0.0001049897
v 18.80125 17.42615 0.0001831147
v 18.80125 17.42615 0.0001831147
v 18.80125 34.85231 0.0001049897
v 18.8014 34.85231 -18.80111
v 18.8014 17.42615 -18.80103
v 18.8014 3.45608E-13 -18.80099
v 18.8014 17.42615 -18.80103
v 0.00015625 17.42615 -18.80122
v 0.000234375 3.45608E-13 -18.80118
v 0.000234375 3.45608E-13 -18.80118
v 0.00015625 17.42615 -18.80122
v -7.275957E-14 17.42615 -5.126035E-05
v -7.275957E-14 3.45608E-13 -5.126035E-05
v -7.275957E-14 3.45608E-13 -5.126035E-05
v -7.275957E-14 17.42615 -5.126035E-05
v 18.80125 17.42615 0.0001831147
v 18.80125 3.45608E-13 0.0002612396
v 18.80125 3.45608E-13 0.0002612396
v 18.80125 17.42615 0.0001831147
v 18.8014 17.42615 -18.80103
v 18.8014 3.45608E-13 -18.80099
vt 0.1719086 0.3921444
vt 0.1719086 0.3909782
vt 0.171617 0.3912698
vt 0.1719086 0.3921444
vt 0.171617 0.3912698
vt 0.171617 0.3918529
vt 0.171034 0.3912698
vt 0.1707425 0.3909782
vt 0.1707425 0.3921444
vt 0.171034 0.3912698
vt 0.1707425 0.3921444
vt 0.171034 0.3918529
vt 0.08227213 0.4099726
vt 0.242961 0.4099726
vt 0.2426264 0.3512101
vt 0.08227219 0.3512101
vt 0.2433072 0.4071245
vt 0.2683789 0.4072883
vt 0.2686616 0.3575566
vt 0.2439625 0.3575566
vt 0.2683789 0.4072883
vt 0.3199996 0.391453
vt 0.3199998 0.3758134
vt 0.2686616 0.3575566
vt 0.3199996 0.391453
vt 0.3264118 0.3928152
vt 0.3269228 0.3738664
vt 0.3199998 0.3758134
vt 0.3264118 0.3928152
vt 0.3283278 0.3927175
vt 0.3283278 0.3738295
vt 0.3269228 0.3738664
vt 0.3263301 0.3986073
vt 0.3253879 0.3986073
vt 0.3253879 0.3995494
vt 0.32633 0.3995495
vt 0.08227213 0.4099726
vt 0.2433238 0.4100935
vt 0.2429892 0.351331
vt 0.08227219 0.3512101
vt 0.08227213 0.4099726
vt 0.2433238 0.4100935
vt 0.2429892 0.351331
vt 0.08227219 0.3512101
vt 0.08227213 0.4099726
vt 0.2433238 0.4100935
vt 0.2429892 0.351331
vt 0.08227219 0.3512101
vt 0.171617 0.3912698
vt 0.171034 0.3912698
vt 0.171034 0.3918529
vt 0.171617 0.3918529
vt 0.1719086 0.3921444
vt 0.171617 0.3918529
vt 0.171034 0.3918529
vt 0.1707425 0.3921444
vt 0.1719086 0.3909782
vt 0.1707425 0.3909782
vt 0.171034 0.3912698
vt 0.171617 0.3912698
vt 0.2433072 0.4071245
vt 0.2683789 0.4065627
vt 0.2686616 0.3575566
vt 0.2439625 0.3575566
vt 0.2683789 0.4065627
vt 0.3199996 0.391453
vt 0.3199998 0.3758134
vt 0.2686616 0.3575566
vt 0.3199996 0.391453
vt 0.3264118 0.3928152
vt 0.3269228 0.3738664
vt 0.3199998 0.3758134
vt 0.2433072 0.4071245
vt 0.2683789 0.4065627
vt 0.2686616 0.3575566
vt 0.2439625 0.3575566
vt 0.2683789 0.4065627
vt 0.3199996 0.391453
vt 0.3199998 0.3758134
vt 0.2686616 0.3575566
vt 0.3199996 0.391453
vt 0.3264118 0.3928152
vt 0.3269228 0.3738664
vt 0.3199998 0.3758134
vt 0.2433072 0.4071245
vt 0.2683789 0.4065627
vt 0.2686616 0.3575566
vt 0.2439625 0.3575566
vt 0.2683789 0.4065627
vt 0.3199996 0.391453
vt 0.3199998 0.3758134
vt 0.2686616 0.3575566
vt 0.3199996 0.391453
vt 0.3264118 0.3928152
vt 0.3269228 0.3738664
vt 0.3199998 0.3758134
vt 0.3264118 0.3928152
vt 0.3283278 0.3927175
vt 0.3283278 0.3738295
vt 0.3269229 0.3738664
vt 0.3283278 0.3738295
vt 0.3269228 0.3738664
vt 0.3264117 0.3928152
vt 0.3283278 0.3927175
vt 0.3264118 0.3928152
vt 0.3283278 0.3927175
vt 0.3283278 0.3738295
vt 0.3269228 0.3738664
vt 0.08227213 0.4099726
vt 0.1339723 0.4100115
vt 0.1338649 0.3512489
vt 0.08227219 0.3512101
vt 0.08227213 0.4099726
vt 0.1339723 0.4100114
vt 0.1338649 0.3512489
vt 0.08227219 0.3512101
vt 0.08227213 0.4099726
vt 0.1339723 0.4100114
vt 0.1338649 0.3512489
vt 0.08227219 0.3512101
vt 0.08227213 0.4099726
vt 0.1337837 0.4099726
vt 0.1336765 0.3512101
vt 0.08227219 0.3512101
vt 0.08227213 0.4099726
vt 0.1339723 0.4100115
vt 0.1338649 0.3512489
vt 0.08227219 0.3512101
vt 0.08227213 0.4099726
vt 0.1339723 0.4100114
vt 0.1338649 0.3512489
vt 0.08227219 0.3512101
vt 0.08227213 0.4099726
vt 0.1339723 0.4100114
vt 0.1338649 0.3512489
vt 0.08227219 0.3512101
vt 0.08227213 0.4099726
vt 0.1337837 0.4099726
vt 0.1336765 0.3512101
vt 0.08227219 0.3512101
vt 0.08227213 0.4099726
vt 0.1339723 0.4100115
vt 0.1338649 0.3512489
vt 0.08227219 0.3512101
vt 0.08227213 0.4099726
vt 0.1339723 0.4100114
vt 0.1338649 0.3512489
vt 0.08227219 0.3512101
vt 0.08227213 0.4099726
vt 0.1339723 0.4100114
vt 0.1338649 0.3512489
vt 0.08227219 0.3512101
vt 0.08227213 0.4099726
vt 0.1337837 0.4099726
vt 0.1336765 0.3512101
vt 0.08227219 0.3512101
vt 0.08227213 0.4099726
vt 0.1339723 0.4100115
vt 0.1338649 0.3512489
vt 0.08227219 0.3512101
vt 0.08227213 0.4099726
vt 0.1339723 0.4100114
vt 0.1338649 0.3512489
vt 0.08227219 0.3512101
vt 0.08227213 0.4099726
vt 0.1339723 0.4100114
vt 0.1338649 0.3512489
vt 0.08227219 0.3512101
vt 0.08227213 0.4099726
vt 0.1337837 0.4099726
vt 0.1336765 0.3512101
vt 0.08227219 0.3512101
vt 0.08227213 0.4099726
vt 0.1339723 0.4100115
vt 0.1338649 0.3512489
vt 0.08227219 0.3512101
vt 0.08227213 0.4099726
vt 0.1339723 0.4100114
vt 0.1338649 0.3512489
vt 0.08227219 0.3512101
vt 0.08227213 0.4099726
vt 0.1339723 0.4100114
vt 0.1338649 0.3512489
vt 0.08227219 0.3512101
vt 0.08227213 0.4099726
vt 0.1337837 0.4099726
vt 0.1336765 0.3512101
vt 0.08227219 0.3512101
vn -3.016409E-06 1 0
vn -3.016409E-06 1 0
vn -3.016409E-06 1 0
vn -3.016409E-06 1 0
vn -3.016409E-06 1 0
vn -3.016409E-06 1 0
vn 2.408887E-06 1 0
vn 2.408887E-06 1 0
vn 2.408887E-06 1 0
vn 2.408887E-06 1 0
vn 2.408887E-06 1 0
vn 2.408887E-06 1 0
vn 1 -3.956173E-07 4.816412E-06
vn 1 -3.956173E-07 4.816412E-06
vn 1 -3.956173E-07 4.816412E-06
vn 1 -3.956173E-07 4.816412E-06
vn 1 -1.283147E-05 4.659554E-06
vn 1 -1.283147E-05 4.659554E-06
vn 1 -1.283147E-05 4.659554E-06
vn 1 -1.283147E-05 4.659554E-06
vn 0.9473438 0.3202183 -4.652661E-06
vn 0.9473438 0.3202183 -4.652661E-06
vn 0.9473438 0.3202183 -4.652661E-06
vn 0.9473438 0.3202183 -4.652661E-06
vn 0.9618106 -0.273716 -1.40216E-05
vn 0.9618106 -0.273716 -1.40216E-05
vn 0.9618106 -0.273716 -1.40216E-05
vn 0.9618106 -0.273716 -1.40216E-05
vn 0.9611405 0.27606 -1.333346E-05
vn 0.9611405 0.27606 -1.333346E-05
vn 0.9611405 0.27606 -1.333346E-05
vn 0.9611405 0.27606 -1.333346E-05
vn 0 1 0
vn 0 1 0
vn 0 1 0
vn 0 1 0
vn 4.212402E-06 -1.459623E-06 -1
vn 4.212402E-06 -1.459623E-06 -1
vn 4.212402E-06 -1.459623E-06 -1
vn 4.212402E-06 -1.459623E-06 -1
vn -1 -1.06381E-06 -6.020521E-06
vn -1 -1.06381E-06 -6.020521E-06
vn -1 -1.06381E-06 -6.020521E-06
vn -1 -1.06381E-06 -6.020521E-06
vn -5.265496E-06 -1.459629E-06 1
vn -5.265496E-06 -1.459629E-06 1
vn -5.265496E-06 -1.459629E-06 1
vn -5.265496E-06 -1.459629E-06 1
vn 0 1 0
vn 0 1 0
vn 0 1 0
vn 0 1 0
vn 0 1 3.399821E-06
vn 0 1 3.399821E-06
vn 0 1 3.399821E-06
vn 0 1 3.399821E-06
vn 0 1 -3.737773E-06
vn 0 1 -3.737773E-06
vn 0 1 -3.737773E-06
vn 0 1 -3.737773E-06
vn -1 -9.603334E-06 -4.65956E-06
vn -1 -9.603334E-06 -4.65956E-06
vn -1 -9.603334E-06 -4.65956E-06
vn -1 -9.603334E-06 -4.65956E-06
vn -0.9473453 0.3202137 2.32633E-06
vn -0.9473453 0.3202137 2.32633E-06
vn -0.9473453 0.3202137 2.32633E-06
vn -0.9473453 0.3202137 2.32633E-06
vn -0.9618006 -0.273751 1.376658E-05
vn -0.9618006 -0.273751 1.376658E-05
vn -0.9618006 -0.273751 1.376658E-05
vn -0.9618006 -0.273751 1.376658E-05
vn 4.801671E-06 -9.581839E-06 -1
vn 4.801671E-06 -9.581839E-06 -1
vn 4.801671E-06 -9.581839E-06 -1
vn 4.801671E-06 -9.581839E-06 -1
vn -1.772441E-06 0.320219 -0.9473436
vn -1.772441E-06 0.320219 -0.9473436
vn -1.772441E-06 0.320219 -0.9473436
vn -1.772441E-06 0.320219 -0.9473436
vn -1.624733E-05 -0.2390612 -0.9710045
vn -1.624733E-05 -0.2390612 -0.9710045
vn -1.624733E-05 -0.2390612 -0.9710045
vn -1.624733E-05 -0.2390612 -0.9710045
vn -6.002089E-06 -8.107656E-06 1
vn -6.002089E-06 -8.107656E-06 1
vn -6.002089E-06 -8.107656E-06 1
vn -6.002089E-06 -8.107656E-06 1
vn 3.544873E-06 0.3202199 0.9473432
vn 3.544873E-06 0.3202199 0.9473432
vn 3.544873E-06 0.3202199 0.9473432
vn 3.544873E-06 0.3202199 0.9473432
vn 1.218554E-05 -0.2390641 0.9710038
vn 1.218554E-05 -0.2390641 0.9710038
vn 1.218554E-05 -0.2390641 0.9710038
vn 1.218554E-05 -0.2390641 0.9710038
vn -0.9611502 0.2760258 1.786207E-05
vn -0.9611502 0.2760258 1.786207E-05
vn -0.9611502 0.2760258 1.786207E-05
vn -0.9611502 0.2760258 1.786207E-05
vn -1.573142E-05 0.2697093 -0.9629417
vn -1.573142E-05 0.2697093 -0.9629417
vn -1.573142E-05 0.2697093 -0.9629417
vn -1.573142E-05 0.2697093 -0.9629417
vn 1.179854E-05 0.2697088 0.9629419
vn 1.179854E-05 0.2697088 0.9629419
vn 1.179854E-05 0.2697088 0.9629419
vn 1.179854E-05 0.2697088 0.9629419
vn 4.212402E-06 -1.459623E-06 -1
vn 8.546132E-06 -4.483203E-06 -1
vn 8.546132E-06 -4.483203E-06 -1
vn 4.212402E-06 -1.459623E-06 -1
vn -1 -1.06381E-06 -6.020521E-06
vn -1 -5.241307E-07 -8.310639E-06
vn -1 -5.241308E-07 -8.31064E-06
vn -1 -1.06381E-06 -6.020521E-06
vn -5.265496E-06 -1.459629E-06 1
vn -1.098788E-05 3.362402E-06 1
vn -1.098788E-05 3.362402E-06 1
vn -5.265496E-06 -1.459629E-06 1
vn 1 -3.956173E-07 4.816412E-06
vn 1 -1.237903E-07 8.310619E-06
vn 1 -1.237903E-07 8.310618E-06
vn 1 -3.956173E-07 4.816412E-06
vn 4.212402E-06 -1.459623E-06 -1
vn 8.546132E-06 -4.483203E-06 -1
vn 8.546132E-06 -4.483203E-06 -1
vn 4.212402E-06 -1.459623E-06 -1
vn -1 -1.06381E-06 -6.020521E-06
vn -1 6.967483E-07 -8.310634E-06
vn -1 6.967483E-07 -8.310635E-06
vn -1 -1.06381E-06 -6.020521E-06
vn -5.265496E-06 -1.459629E-06 1
vn -8.546132E-06 2.241601E-06 1
vn -8.546132E-06 2.241601E-06 1
vn -5.265496E-06 -1.459629E-06 1
vn 1 -3.956173E-07 4.816412E-06
vn 1 -6.72334E-07 8.310629E-06
vn 1 -6.72334E-07 8.310629E-06
vn 1 -3.956173E-07 4.816412E-06
vn 4.212402E-06 -1.459623E-06 -1
vn 8.546135E-06 -2.241602E-06 -1
vn 8.546134E-06 -2.241602E-06 -1
vn 4.212402E-06 -1.459623E-06 -1
vn -1 -1.06381E-06 -6.020521E-06
vn -1 -8.725039E-07 -8.310629E-06
vn -1 -8.725038E-07 -8.310629E-06
vn -1 -1.06381E-06 -6.020521E-06
vn -5.265496E-06 -1.459629E-06 1
vn -1.098789E-05 3.362403E-06 1
vn -1.098789E-05 3.362403E-06 1
vn -5.265496E-06 -1.459629E-06 1
vn 1 -3.956173E-07 4.816412E-06
vn 1 5.485429E-07 8.310614E-06
vn 1 5.485429E-07 8.310613E-06
vn 1 -3.956173E-07 4.816412E-06
vn 4.212402E-06 -1.459623E-06 -1
vn 7.325254E-06 -3.362401E-06 -1
vn 7.325254E-06 -3.362401E-06 -1
vn 4.212402E-06 -1.459623E-06 -1
vn -1 -1.06381E-06 -6.020521E-06
vn -1 3.48375E-07 -8.310659E-06
vn -1 3.48375E-07 -8.31066E-06
vn -1 -1.06381E-06 -6.020521E-06
vn -5.265496E-06 -1.459629E-06 1
vn -1.098788E-05 2.241601E-06 1
vn -1.098788E-05 2.241601E-06 1
vn -5.265496E-06 -1.459629E-06 1
vn 1 -3.956173E-07 4.816412E-06
vn 1 -1.237905E-07 8.310629E-06
vn 1 -1.237905E-07 8.310629E-06
vn 1 -3.956173E-07 4.816412E-06
vn 4.212402E-06 -1.459623E-06 -1
vn 1.220879E-05 -2.24157E-06 -1
vn 1.220879E-05 -2.24157E-06 -1
vn 4.212402E-06 -1.459623E-06 -1
vn -1 -1.06381E-06 -6.020521E-06
vn -1 -2.093394E-06 -1.038832E-05
vn -1 -2.093394E-06 -1.038832E-05
vn -1 -1.06381E-06 -6.020521E-06
vn -5.265496E-06 -1.459629E-06 1
vn -1.465052E-05 2.241602E-06 1
vn -1.465052E-05 2.241602E-06 1
vn -5.265496E-06 -1.459629E-06 1
vn 1 -3.956173E-07 4.816412E-06
vn 1 1.097088E-06 8.310633E-06
vn 1 1.097088E-06 8.310634E-06
vn 1 -3.956173E-07 4.816412E-06
g building_2_0
f 3/3/3 2/2/2 1/1/1
f 6/6/6 5/5/5 4/4/4
f 9/9/9 8/8/8 7/7/7
f 12/12/12 11/11/11 10/10/10
f 15/15/15 14/14/14 13/13/13
f 16/16/16 15/15/15 13/13/13
f 19/19/19 18/18/18 17/17/17
f 20/20/20 19/19/19 17/17/17
f 23/23/23 22/22/22 21/21/21
f 24/24/24 23/23/23 21/21/21
f 27/27/27 26/26/26 25/25/25
f 28/28/28 27/27/27 25/25/25
f 31/31/31 30/30/30 29/29/29
f 32/32/32 31/31/31 29/29/29
f 35/35/35 34/34/34 33/33/33
f 36/36/36 35/35/35 33/33/33
f 39/39/39 38/38/38 37/37/37
f 40/40/40 39/39/39 37/37/37
f 43/43/43 42/42/42 41/41/41
f 44/44/44 43/43/43 41/41/41
f 47/47/47 46/46/46 45/45/45
f 48/48/48 47/47/47 45/45/45
f 51/51/51 50/50/50 49/49/49
f 52/52/52 51/51/51 49/49/49
f 55/55/55 54/54/54 53/53/53
f 56/56/56 55/55/55 53/53/53
f 59/59/59 58/58/58 57/57/57
f 60/60/60 59/59/59 57/57/57
f 63/63/63 62/62/62 61/61/61
f 64/64/64 63/63/63 61/61/61
f 67/67/67 66/66/66 65/65/65
f 68/68/68 67/67/67 65/65/65
f 71/71/71 70/70/70 69/69/69
f 72/72/72 71/71/71 69/69/69
f 75/75/75 74/74/74 73/73/73
f 76/76/76 75/75/75 73/73/73
f 79/79/79 78/78/78 77/77/77
f 80/80/80 79/79/79 77/77/77
f 83/83/83 82/82/82 81/81/81
f 84/84/84 83/83/83 81/81/81
f 87/87/87 86/86/86 85/85/85
f 88/88/88 87/87/87 85/85/85
f 91/91/91 90/90/90 89/89/89
f 92/92/92 91/91/91 89/89/89
f 95/95/95 94/94/94 93/93/93
f 96/96/96 95/95/95 93/93/93
f 99/99/99 98/98/98 97/97/97
f 100/100/100 99/99/99 97/97/97
f 103/103/103 102/102/102 101/101/101
f 104/104/104 103/103/103 101/101/101
f 107/107/107 106/106/106 105/105/105
f 108/108/108 107/107/107 105/105/105
f 111/111/111 110/110/110 109/109/109
f 112/112/112 111/111/111 109/109/109
f 115/115/115 114/114/114 113/113/113
f 116/116/116 115/115/115 113/113/113
f 119/119/119 118/118/118 117/117/117
f 120/120/120 119/119/119 117/117/117
f 123/123/123 122/122/122 121/121/121
f 124/124/124 123/123/123 121/121/121
f 127/127/127 126/126/126 125/125/125
f 128/128/128 127/127/127 125/125/125
f 131/131/131 130/130/130 129/129/129
f 132/132/132 131/131/131 129/129/129
f 135/135/135 134/134/134 133/133/133
f 136/136/136 135/135/135 133/133/133
f 139/139/139 138/138/138 137/137/137
f 140/140/140 139/139/139 137/137/137
f 143/143/143 142/142/142 141/141/141
f 144/144/144 143/143/143 141/141/141
f 147/147/147 146/146/146 145/145/145
f 148/148/148 147/147/147 145/145/145
f 151/151/151 150/150/150 149/149/149
f 152/152/152 151/151/151 149/149/149
f 155/155/155 154/154/154 153/153/153
f 156/156/156 155/155/155 153/153/153
f 159/159/159 158/158/158 157/157/157
f 160/160/160 159/159/159 157/157/157
f 163/163/163 162/162/162 161/161/161
f 164/164/164 163/163/163 161/161/161
f 167/167/167 166/166/166 165/165/165
f 168/168/168 167/167/167 165/165/165
f 171/171/171 170/170/170 169/169/169
f 172/172/172 171/171/171 169/169/169
f 175/175/175 174/174/174 173/173/173
f 176/176/176 175/175/175 173/173/173
f 179/179/179 178/178/178 177/177/177
f 180/180/180 179/179/179 177/177/177
f 183/183/183 182/182/182 181/181/181
f 184/184/184 183/183/183 181/181/181
f 187/187/187 186/186/186 185/185/185
f 188/188/188 187/187/187 185/185/185
