g skyscraper_42
v -9.431767E-06 300.0192 -9.680828E-05
v 4.212334 300.0192 5.703653
v 4.212295 300.0193 38.00365
v -9.431767E-06 300.0192 -9.680828E-05
v 4.212295 300.0193 38.00365
v -4.849427E-05 300.0193 43.97678
v 38.47437 300.0192 -9.680828E-05
v 38.47437 300.0193 43.97678
v 33.17026 300.0193 38.00365
v 38.47437 300.0192 -9.680828E-05
v 33.17026 300.0193 38.00365
v 33.1703 300.0192 5.703653
v 2.963073E-05 97.26834 -9.680828E-05
v 2.963073E-05 194.5366 -9.680828E-05
v -9.431767E-06 194.5367 43.97678
v 2.963073E-05 97.26838 43.97678
v 2.963073E-05 97.26838 43.97678
v -9.431767E-06 194.5367 43.97678
v 38.47437 194.5367 43.97678
v 38.47437 97.26846 43.97678
v 38.47437 97.26846 43.97678
v 38.47437 194.5367 43.97678
v 38.47437 194.5367 -9.680828E-05
v 38.47437 97.26838 -9.680828E-05
v 38.47437 97.26838 -9.680828E-05
v 38.47437 194.5367 -9.680828E-05
v 2.963073E-05 194.5366 -9.680828E-05
v 2.963073E-05 97.26834 -9.680828E-05
v 9.277686 311.6797 10.8024
v 9.277608 320.7995 10.8024
v 9.27753 320.7996 33.17428
v 9.277608 311.6797 33.17428
v 9.277608 320.7995 10.8024
v 27.89089 320.7995 10.8024
v 27.89081 320.7997 33.17428
v 9.27753 320.7996 33.17428
v 27.89077 311.6797 10.8024
v 27.89089 320.7995 10.8024
v 9.277608 320.7995 10.8024
v 9.277686 311.6797 10.8024
v 27.89077 311.6798 33.17428
v 27.89081 320.7997 33.17428
v 27.89089 320.7995 10.8024
v 27.89077 311.6797 10.8024
v 9.277608 311.6797 33.17428
v 9.27753 320.7996 33.17428
v 27.89081 320.7997 33.17428
v 27.89077 311.6798 33.17428
v 4.212334 300.0192 5.703653
v 4.212256 311.6797 5.703653
v 4.212217 311.6797 38.00365
v 4.212295 300.0193 38.00365
v 33.1703 300.0192 5.703653
v 33.17042 311.6797 5.703653
v 4.212256 311.6797 5.703653
v 4.212334 300.0192 5.703653
v 33.17026 300.0193 38.00365
v 33.17038 311.6798 38.00365
v 33.17042 311.6797 5.703653
v 33.1703 300.0192 5.703653
v 4.212295 300.0193 38.00365
v 4.212217 311.6797 38.00365
v 33.17038 311.6798 38.00365
v 33.17026 300.0193 38.00365
v 4.212256 311.6797 5.703653
v 33.17042 311.6797 5.703653
v 27.89077 311.6797 10.8024
v 9.277686 311.6797 10.8024
v 4.212256 311.6797 5.703653
v 9.277686 311.6797 10.8024
v 9.277608 311.6797 33.17428
v 4.212217 311.6797 38.00365
v 27.89077 311.6798 33.17428
v 33.17038 311.6798 38.00365
v 4.212217 311.6797 38.00365
v 9.277608 311.6797 33.17428
v 33.17042 311.6797 5.703653
v 33.17038 311.6798 38.00365
v 27.89077 311.6798 33.17428
v 27.89077 311.6797 10.8024
v 2.963073E-05 194.5366 -9.680828E-05
v -9.431767E-06 300.0192 -9.680828E-05
v -4.849427E-05 300.0193 43.97678
v -9.431767E-06 194.5367 43.97678
v 38.47437 194.5367 -9.680828E-05
v 38.47437 300.0192 -9.680828E-05
v -9.431767E-06 300.0192 -9.680828E-05
v 2.963073E-05 194.5366 -9.680828E-05
v 38.47437 194.5367 43.97678
v 38.47437 300.0193 43.97678
v 38.47437 300.0192 -9.680828E-05
v 38.47437 194.5367 -9.680828E-05
v -9.431767E-06 194.5367 43.97678
v -4.849427E-05 300.0193 43.97678
v 38.47437 300.0193 43.97678
v 38.47437 194.5367 43.97678
v -9.431767E-06 300.0192 -9.680828E-05
v 38.47437 300.0192 -9.680828E-05
v 33.1703 300.0192 5.703653
v 4.212334 300.0192 5.703653
v 33.17026 300.0193 38.00365
v 38.47437 300.0193 43.97678
v -4.849427E-05 300.0193 43.97678
v 4.212295 300.0193 38.00365
v 2.963073E-05 1.777034E-05 -9.680828E-05
v 2.963073E-05 97.26834 -9.680828E-05
v 2.963073E-05 97.26838 43.97678
v 2.963073E-05 0.0001349578 43.97678
v 2.963073E-05 0.0001349578 43.97678
v 2.963073E-05 97.26838 43.97678
v 38.47437 97.26846 43.97678
v 38.47437 0.0001349578 43.97678
v 38.47437 0.0001349578 43.97678
v 38.47437 97.26846 43.97678
v 38.47437 97.26838 -9.680828E-05
v 38.47437 5.683285E-05 -9.680828E-05
v 38.47437 5.683285E-05 -9.680828E-05
v 38.47437 97.26838 -9.680828E-05
v 2.963073E-05 97.26834 -9.680828E-05
v 2.963073E-05 1.777034E-05 -9.680828E-05
vt 0.5442089 0.1915529
vt 0.5443779 0.1913273
vt 0.5443779 0.1908762
vt 0.5442089 0.1915529
vt 0.5443779 0.1908762
vt 0.5442089 0.1906507
vt 0.5448848 0.1915529
vt 0.5448848 0.1906507
vt 0.5447158 0.1908762
vt 0.5448848 0.1915529
vt 0.5447158 0.1908762
vt 0.5447158 0.1913273
vt 0.4721234 0.2203228
vt 0.6041663 0.2203228
vt 0.6041663 0.1178845
vt 0.4721234 0.1178845
vt 0.4721234 0.2203228
vt 0.6041663 0.2203228
vt 0.6041663 0.1178845
vt 0.4721234 0.1178845
vt 0.4721234 0.2203228
vt 0.6041663 0.2203228
vt 0.6041663 0.1178845
vt 0.4721234 0.1178845
vt 0.4721234 0.2203228
vt 0.6041663 0.2203228
vt 0.6041663 0.1178845
vt 0.4721234 0.1178845
vt 0.6858622 0.2040103
vt 0.7158989 0.2040103
vt 0.7158988 0.1445569
vt 0.6858622 0.1445569
vt 0.5442089 0.1915529
vt 0.5448848 0.1915529
vt 0.5448848 0.1906507
vt 0.5442089 0.1906507
vt 0.6858622 0.2040103
vt 0.7158989 0.2040103
vt 0.7158988 0.1445569
vt 0.6858622 0.1445569
vt 0.6858622 0.2040103
vt 0.7158989 0.2040103
vt 0.7158988 0.1445569
vt 0.6858622 0.1445569
vt 0.6858622 0.2040103
vt 0.7158989 0.2040103
vt 0.7158988 0.1445569
vt 0.6858622 0.1445569
vt 0.6363973 0.2155051
vt 0.6863284 0.2155051
vt 0.6863284 0.1275739
vt 0.6363973 0.1275739
vt 0.6363973 0.2155051
vt 0.6863284 0.2155051
vt 0.6863284 0.1275739
vt 0.6363973 0.1275739
vt 0.6363973 0.2155051
vt 0.6863284 0.2155051
vt 0.6863284 0.1275739
vt 0.6363973 0.1275739
vt 0.6363973 0.2155051
vt 0.6863284 0.2155051
vt 0.6863284 0.1275739
vt 0.6363973 0.1275739
vt 0.5442089 0.1915529
vt 0.5448848 0.1915529
vt 0.5447158 0.1913273
vt 0.5443779 0.1913273
vt 0.5442089 0.1915529
vt 0.5443779 0.1913273
vt 0.5443779 0.1908762
vt 0.5442089 0.1906507
vt 0.5447158 0.1908762
vt 0.5448848 0.1906507
vt 0.5442089 0.1906507
vt 0.5443779 0.1908762
vt 0.5448848 0.1915529
vt 0.5448848 0.1906507
vt 0.5447158 0.1908762
vt 0.5447158 0.1913273
vt 0.4721234 0.2203228
vt 0.6153173 0.2203228
vt 0.6153173 0.1178845
vt 0.4721234 0.1178845
vt 0.4721234 0.2203228
vt 0.6153173 0.2203228
vt 0.6153173 0.1178845
vt 0.4721234 0.1178845
vt 0.4721234 0.2203228
vt 0.6153173 0.2203228
vt 0.6153173 0.1178845
vt 0.4721234 0.1178845
vt 0.4721234 0.2203228
vt 0.6153173 0.2203228
vt 0.6153173 0.1178845
vt 0.4721234 0.1178845
vt 0.5442089 0.1915529
vt 0.5448848 0.1915529
vt 0.5447158 0.1913273
vt 0.5443779 0.1913273
vt 0.5447158 0.1908762
vt 0.5448848 0.1906507
vt 0.5442089 0.1906507
vt 0.5443779 0.1908762
vt 0.4721234 0.2203228
vt 0.6041663 0.2203228
vt 0.6041663 0.1178845
vt 0.4721234 0.1178845
vt 0.4721234 0.2203228
vt 0.6041663 0.2203228
vt 0.6041663 0.1178845
vt 0.4721234 0.1178845
vt 0.4721234 0.2203228
vt 0.6041663 0.2203228
vt 0.6041663 0.1178845
vt 0.4721234 0.1178845
vt 0.4721234 0.2203228
vt 0.6041663 0.2203228
vt 0.6041663 0.1178845
vt 0.4721234 0.1178845
vn -5.817123E-07 1 -1.201369E-06
vn -5.817123E-07 1 -1.201369E-06
vn -9.237345E-07 1 -3.003047E-06
vn -5.817123E-07 1 -1.201369E-06
vn -9.237345E-07 1 -3.003047E-06
vn -9.237345E-07 1 -3.003047E-06
vn -3.000869E-06 1 -1.526535E-06
vn -3.342891E-06 1 -3.328214E-06
vn -3.342891E-06 1 -3.328214E-06
vn -3.000869E-06 1 -1.526535E-06
vn -3.342891E-06 1 -3.328214E-06
vn -3.000869E-06 1 -1.526535E-06
vn -1 -2.187982E-07 -4.936042E-07
vn -1 -1.870227E-07 -4.441252E-07
vn -1 -1.870227E-07 -4.441252E-07
vn -1 -2.187982E-07 -4.936042E-07
vn -1.065855E-06 -3.378098E-07 1
vn 1.368129E-05 0 1
vn 1.368129E-05 0 1
vn -1.065855E-06 -3.378098E-07 1
vn 1 -4.243173E-07 0
vn 1 0 0
vn 1 0 0
vn 1 -4.243173E-07 0
vn -1.065855E-07 -4.278928E-07 -1
vn 0 0 -1
vn 0 0 -1
vn -1.065855E-07 -4.278928E-07 -1
vn -1 -9.225088E-06 -3.881001E-06
vn -1 -9.225088E-06 -3.881001E-06
vn -1 -9.225088E-06 -3.881001E-06
vn -1 -9.225088E-06 -3.881001E-06
vn -4.373273E-06 1 -5.042571E-06
vn -4.373273E-06 1 -5.042571E-06
vn -4.373273E-06 1 -5.042571E-06
vn -4.373273E-06 1 -5.042571E-06
vn 4.777959E-07 -5.730519E-06 -1
vn 4.777959E-07 -5.730519E-06 -1
vn 4.777959E-07 -5.730519E-06 -1
vn 4.777959E-07 -5.730519E-06 -1
vn 1 -9.390158E-06 1.940567E-06
vn 1 -9.390158E-06 1.940567E-06
vn 1 -9.390158E-06 1.940567E-06
vn 1 -9.390158E-06 1.940567E-06
vn -3.185302E-07 -5.209584E-06 1
vn -3.185302E-07 -5.209584E-06 1
vn -3.185302E-07 -5.209584E-06 1
vn -3.185302E-07 -5.209584E-06 1
vn -1 -6.588337E-06 -1.344076E-06
vn -1 -6.588337E-06 -1.344076E-06
vn -1 -6.588337E-06 -1.344076E-06
vn -1 -6.588337E-06 -1.344076E-06
vn 1.601308E-07 -4.481971E-06 -1
vn 1.601308E-07 -4.481971E-06 -1
vn 1.601308E-07 -4.481971E-06 -1
vn 1.601308E-07 -4.481971E-06 -1
vn 1 -1.378219E-05 1.344135E-06
vn 1 -1.378219E-05 1.344135E-06
vn 1 -1.378219E-05 1.344135E-06
vn 1 -1.378219E-05 1.344135E-06
vn 0 0 1
vn 0 0 1
vn 0 0 1
vn 0 0 1
vn -1.221324E-06 1 -2.285832E-06
vn -3.144118E-06 1 -2.393596E-06
vn -3.144118E-06 1 -2.393596E-06
vn -1.221324E-06 1 -2.285832E-06
vn -1.221324E-06 1 -2.285832E-06
vn -1.221324E-06 1 -2.285832E-06
vn -1.3354E-06 1 -4.436596E-06
vn -1.3354E-06 1 -4.436596E-06
vn -3.258194E-06 1 -4.54436E-06
vn -3.258194E-06 1 -4.54436E-06
vn -1.3354E-06 1 -4.436596E-06
vn -1.3354E-06 1 -4.436596E-06
vn -3.144118E-06 1 -2.393596E-06
vn -3.258194E-06 1 -4.54436E-06
vn -3.258194E-06 1 -4.54436E-06
vn -3.144118E-06 1 -2.393596E-06
vn -1 -2.187982E-07 -4.936042E-07
vn -1 -2.187982E-07 -4.936042E-07
vn -1 -2.187982E-07 -4.936042E-07
vn -1 -2.187982E-07 -4.936042E-07
vn -1.065855E-07 -4.278928E-07 -1
vn -1.065855E-07 -4.278928E-07 -1
vn -1.065855E-07 -4.278928E-07 -1
vn -1.065855E-07 -4.278928E-07 -1
vn 1 -4.243173E-07 0
vn 1 -4.243173E-07 0
vn 1 -4.243173E-07 0
vn 1 -4.243173E-07 0
vn -1.065855E-06 -3.378098E-07 1
vn -1.065855E-06 -3.378098E-07 1
vn -1.065855E-06 -3.378098E-07 1
vn -1.065855E-06 -3.378098E-07 1
vn -5.817123E-07 1 -1.201369E-06
vn -3.000869E-06 1 -1.526535E-06
vn -3.000869E-06 1 -1.526535E-06
vn -5.817123E-07 1 -1.201369E-06
vn -3.342891E-06 1 -3.328214E-06
vn -3.342891E-06 1 -3.328214E-06
vn -9.237345E-07 1 -3.003047E-06
vn -9.237345E-07 1 -3.003047E-06
vn -1 -2.187982E-07 -4.936042E-07
vn -1 0 0
vn -1 0 0
vn -1 -2.187982E-07 -4.936042E-07
vn -1.065855E-06 -3.378098E-07 1
vn 0 0 1
vn 0 0 1
vn -1.065855E-06 -3.378098E-07 1
vn 1 -4.243173E-07 0
vn 1 0 0
vn 1 0 0
vn 1 -4.243173E-07 0
vn -1.065855E-07 -4.278928E-07 -1
vn 0 0 -1
vn 0 0 -1
vn -1.065855E-07 -4.278928E-07 -1
g skyscraper_42_0
f 3/3/3 2/2/2 1/1/1
f 6/6/6 5/5/5 4/4/4
f 9/9/9 8/8/8 7/7/7
f 12/12/12 11/11/11 10/10/10
f 15/15/15 14/14/14 13/13/13
f 16/16/16 15/15/15 13/13/13
f 19/19/19 18/18/18 17/17/17
f 20/20/20 19/19/19 17/17/17
f 23/23/23 22/22/22 21/21/21
f 24/24/24 23/23/23 21/21/21
f 27/27/27 26/26/26 25/25/25
f 28/28/28 27/27/27 25/25/25
f 31/31/31 30/30/30 29/29/29
f 32/32/32 31/31/31 29/29/29
f 35/35/35 34/34/34 33/33/33
f 36/36/36 35/35/35 33/33/33
f 39/39/39 38/38/38 37/37/37
f 40/40/40 39/39/39 37/37/37
f 43/43/43 42/42/42 41/41/41
f 44/44/44 43/43/43 41/41/41
f 47/47/47 46/46/46 45/45/45
f 48/48/48 47/47/47 45/45/45
f 51/51/51 50/50/50 49/49/49
f 52/52/52 51/51/51 49/49/49
f 55/55/55 54/54/54 53/53/53
f 56/56/56 55/55/55 53/53/53
f 59/59/59 58/58/58 57/57/57
f 60/60/60 59/59/59 57/57/57
f 63/63/63 62/62/62 61/61/61
f 64/64/64 63/63/63 61/61/61
f 67/67/67 66/66/66 65/65/65
f 68/68/68 67/67/67 65/65/65
f 71/71/71 70/70/70 69/69/69
f 72/72/72 71/71/71 69/69/69
f 75/75/75 74/74/74 73/73/73
f 76/76/76 75/75/75 73/73/73
f 79/79/79 78/78/78 77/77/77
f 80/80/80 79/79/79 77/77/77
f 83/83/83 82/82/82 81/81/81
f 84/84/84 83/83/83 81/81/81
f 87/87/87 86/86/86 85/85/85
f 88/88/88 87/87/87 85/85/85
f 91/91/91 90/90/90 89/89/89
f 92/92/92 91/91/91 89/89/89
f 95/95/95 94/94/94 93/93/93
f 96/96/96 95/95/95 93/93/93
f 99/99/99 98/98/98 97/97/97
f 100/100/100 99/99/99 97/97/97
f 103/103/103 102/102/102 101/101/101
f 104/104/104 103/103/103 101/101/101
f 107/107/107 106/106/106 105/105/105
f 108/108/108 107/107/107 105/105/105
f 111/111/111 110/110/110 109/109/109
f 112/112/112 111/111/111 109/109/109
f 115/115/115 114/114/114 113/113/113
f 116/116/116 115/115/115 113/113/113
f 119/119/119 118/118/118 117/117/117
f 120/120/120 119/119/119 117/117/117
