g skyscraper_30
v 42.46664 442.0678 -0.003582203
v 42.46664 451.4697 -0.003582203
v -4.955121E-06 451.4697 -0.003582203
v -4.955121E-06 442.0678 -0.003582203
v 42.46648 379.3952 -0.002957203
v 0.0003856699 379.3952 -0.003582203
v -4.955121E-06 451.4697 3.925793
v -4.955121E-06 455.8098 3.925793
v -4.955121E-06 455.8098 68.68704
v -4.955121E-06 451.4697 68.68704
v 0.0001512949 441.851 69.34079
v 0.0001512949 442.0862 73.58579
v 0.0001512949 451.4697 73.58579
v 0.0003075449 379.3952 73.58579
v 0.0001512949 441.851 3.402043
v 0.0003856699 379.3952 -0.003582203
v -4.955121E-06 442.0678 -0.003582203
v -4.955121E-06 451.4697 -0.003582203
v -4.955121E-06 451.4697 68.68704
v 42.46664 451.4697 68.68704
v 42.46664 451.4697 73.58579
v 0.0001512949 451.4697 73.58579
v -4.955121E-06 455.8098 68.68704
v 42.46664 455.8098 68.68704
v 42.46664 451.4697 68.68704
v -4.955121E-06 451.4697 68.68704
v -4.955121E-06 451.4697 -0.003582203
v 42.46664 451.4697 -0.003582203
v 42.46664 451.4697 3.925793
v -4.955121E-06 451.4697 3.925793
v -4.955121E-06 451.4697 3.925793
v 42.46664 451.4697 3.925793
v 42.46664 455.8098 3.925793
v -4.955121E-06 455.8098 3.925793
v 42.46664 451.4697 3.925793
v 42.46664 451.4697 -0.003582203
v 42.46648 379.3952 -0.002957203
v 42.46664 451.4697 68.68704
v 42.46632 379.3952 73.58579
v 42.46664 451.4697 73.58579
v 42.46664 455.8098 3.925793
v 42.46664 455.8098 68.68704
v 0.0001512949 442.0862 73.58579
v 0.0001512949 451.4697 73.58579
v 42.46664 451.4697 73.58579
v 42.46664 442.0678 73.58579
v 0.0003075449 379.3952 73.58579
v 42.46632 379.3952 73.58579
v 42.46624 305.6583 -0.002957203
v 42.46648 379.3952 -0.002957203
v 0.0003856699 379.3952 -0.003582203
v 0.0004637949 305.6583 -0.002957203
v 42.46609 305.6583 73.58579
v 42.46632 379.3952 73.58579
v 42.46648 379.3952 -0.002957203
v 42.46624 305.6583 -0.002957203
v 0.0003075449 305.6583 73.58579
v 0.0003075449 379.3952 73.58579
v 42.46632 379.3952 73.58579
v 42.46609 305.6583 73.58579
v 0.0004637949 305.6583 -0.002957203
v 0.0003856699 379.3952 -0.003582203
v 0.0003075449 379.3952 73.58579
v 0.0003075449 305.6583 73.58579
v 42.46609 229.2437 -0.001707203
v 42.46624 305.6583 -0.002957203
v 0.0004637949 305.6583 -0.002957203
v 0.0003075449 229.2437 -0.001707203
v 0.0003075449 229.2437 -0.001707203
v 0.0004637949 305.6583 -0.002957203
v 0.0003075449 305.6583 73.58579
v -4.955121E-06 229.2437 73.58579
v 42.46585 229.2437 73.58704
v 42.46609 305.6583 73.58579
v 42.46624 305.6583 -0.002957203
v 42.46609 229.2437 -0.001707203
v -4.955121E-06 229.2437 73.58579
v 0.0003075449 305.6583 73.58579
v 42.46609 305.6583 73.58579
v 42.46585 229.2437 73.58704
v 42.46585 152.8291 -0.001707203
v 42.46609 229.2437 -0.001707203
v 0.0003075449 229.2437 -0.001707203
v -4.955121E-06 152.8291 -0.001707203
v -4.955121E-06 152.8291 -0.001707203
v 0.0003075449 229.2437 -0.001707203
v -4.955121E-06 229.2437 73.58579
v -8.308012E-05 152.8291 73.58704
v 42.4657 152.8291 73.58829
v 42.46585 229.2437 73.58704
v 42.46609 229.2437 -0.001707203
v 42.46585 152.8291 -0.001707203
v -8.308012E-05 152.8291 73.58704
v -4.955121E-06 229.2437 73.58579
v 42.46585 229.2437 73.58704
v 42.4657 152.8291 73.58829
v 42.4657 76.41457 -0.0004572032
v 42.46585 152.8291 -0.001707203
v -4.955121E-06 152.8291 -0.001707203
v -8.308012E-05 76.41457 -0.0004572032
v -8.308012E-05 76.41457 -0.0004572032
v -4.955121E-06 152.8291 -0.001707203
v -8.308012E-05 152.8291 73.58704
v -0.0002393301 76.41457 73.58829
v 42.46554 76.41457 73.58829
v 42.4657 152.8291 73.58829
v 42.46585 152.8291 -0.001707203
v 42.4657 76.41457 -0.0004572032
v -0.0002393301 76.41457 73.58829
v -8.308012E-05 152.8291 73.58704
v 42.4657 152.8291 73.58829
v 42.46554 76.41457 73.58829
v 42.46554 2.735128E-06 0.0001677968
v 42.4657 76.41457 -0.0004572032
v -8.308012E-05 76.41457 -0.0004572032
v -4.955121E-06 2.735128E-06 0.0001677968
v -4.955121E-06 2.735128E-06 0.0001677968
v -8.308012E-05 76.41457 -0.0004572032
v -0.0002393301 76.41457 73.58829
v -0.0002393301 2.735128E-06 73.58829
v 42.46531 2.735128E-06 73.58829
v 42.46554 76.41457 73.58829
v 42.4657 76.41457 -0.0004572032
v 42.46554 2.735128E-06 0.0001677968
v -0.0002393301 2.735128E-06 73.58829
v -0.0002393301 76.41457 73.58829
v 42.46554 76.41457 73.58829
v 42.46531 2.735128E-06 73.58829
v 2.927964 455.8098 6.561418
v 2.927964 461.1805 6.561418
v 2.927964 461.1805 66.05204
v 2.927964 455.8098 66.05204
v 2.927964 455.8098 66.05204
v 2.927964 461.1805 66.05204
v 39.53875 461.1805 66.05204
v 39.53875 455.8098 66.05204
v 39.53875 455.8098 66.05204
v 39.53875 461.1805 66.05204
v 39.53875 461.1805 6.561418
v 39.53875 455.8098 6.561418
v 39.53875 455.8098 6.561418
v 39.53875 461.1805 6.561418
v 2.927964 461.1805 6.561418
v 2.927964 455.8098 6.561418
v 2.927964 461.1805 6.561418
v 21.23335 461.1805 36.30642
v 2.927964 461.1805 66.05204
v 39.53875 461.1805 6.561418
v 39.53875 461.1805 66.05204
v -4.955121E-06 455.8098 3.925793
v 2.927964 455.8098 6.561418
v 2.927964 455.8098 66.05204
v -4.955121E-06 455.8098 68.68704
v 42.46664 455.8098 3.925793
v 39.53875 455.8098 66.05204
v 39.53875 455.8098 6.561418
v 42.46664 455.8098 68.68704
vt 0.7693579 0.1065979
vt 0.8240557 0.1065979
vt 0.8240557 0.005779762
vt 0.7693579 0.005779784
vt 0.5025986 0.1065979
vt 0.5025986 0.005779792
vt 0.9225923 0.1069459
vt 0.9225923 0.1133651
vt 0.9941269 0.1133651
vt 0.9941269 0.1069459
vt 0.9948493 0.09271931
vt 0.9995394 0.09309383
vt 0.9995394 0.1069459
vt 0.9995394 0.0003434736
vt 0.9220129 0.09271931
vt 0.9182505 0.0003434736
vt 0.9182504 0.09304007
vt 0.9182505 0.1069459
vt 0.9982141 0.1093874
vt 0.9984797 0.1093874
vt 0.9984797 0.10934
vt 0.9982141 0.10934
vt 0.9982141 0.1093874
vt 0.9984797 0.1093874
vt 0.9984797 0.1093874
vt 0.9982141 0.1093874
vt 0.9982141 0.1100513
vt 0.9984797 0.1100513
vt 0.9984797 0.1100133
vt 0.9982141 0.1100133
vt 0.9982141 0.1100133
vt 0.9984797 0.1100133
vt 0.9984797 0.1100133
vt 0.9982141 0.1100133
vt 0.9941269 0.1069459
vt 0.9995394 0.1069459
vt 0.9995394 0.0003434736
vt 0.9225923 0.1069459
vt 0.9182505 0.0003434736
vt 0.9182505 0.1069459
vt 0.9941269 0.1133651
vt 0.9225923 0.1133651
vt 0.7693579 0.1065979
vt 0.8240557 0.1065979
vt 0.8240557 0.005779762
vt 0.7693579 0.005779784
vt 0.5025986 0.1065979
vt 0.5025986 0.005779792
vt 0.5039878 0.1065979
vt 0.7425761 0.1065979
vt 0.7425761 0.005779751
vt 0.5039878 0.005779751
vt 0.9182505 0.003010647
vt 0.9182505 0.08591805
vt 0.9995394 0.08591805
vt 0.9995394 0.003010647
vt 0.5039878 0.1065979
vt 0.7425761 0.1065979
vt 0.7425761 0.005779751
vt 0.5039878 0.005779751
vt 0.9182505 0.003010647
vt 0.9182505 0.08591805
vt 0.9995394 0.08591805
vt 0.9995394 0.003010647
vt 0.4953239 0.1065979
vt 0.7425761 0.1065979
vt 0.7425761 0.005779751
vt 0.4953239 0.005779751
vt 0.9182505 0
vt 0.9182505 0.08591805
vt 0.9995394 0.08591805
vt 0.9995394 0
vt 0.9182505 0
vt 0.9182505 0.08591805
vt 0.9995394 0.08591805
vt 0.9995394 0
vt 0.4953239 0.1065979
vt 0.7425761 0.1065979
vt 0.7425761 0.005779751
vt 0.4953239 0.005779751
vt 0.4953239 0.1065979
vt 0.7425761 0.1065979
vt 0.7425761 0.005779751
vt 0.4953239 0.005779751
vt 0.9182505 0
vt 0.9182505 0.08591805
vt 0.9995394 0.08591805
vt 0.9995394 0
vt 0.9182505 0
vt 0.9182505 0.08591805
vt 0.9995394 0.08591805
vt 0.9995394 0
vt 0.4953239 0.1065979
vt 0.7425761 0.1065979
vt 0.7425761 0.005779751
vt 0.4953239 0.005779751
vt 0.4953239 0.1065979
vt 0.7425761 0.1065979
vt 0.7425761 0.005779751
vt 0.4953239 0.005779751
vt 0.9182505 0
vt 0.9182505 0.08591805
vt 0.9995394 0.08591805
vt 0.9995394 0
vt 0.9182505 0
vt 0.9182505 0.08591805
vt 0.9995394 0.08591805
vt 0.9995394 0
vt 0.4953239 0.1065979
vt 0.7425761 0.1065979
vt 0.7425761 0.005779751
vt 0.4953239 0.005779751
vt 0.4953239 0.1065979
vt 0.7425761 0.1065979
vt 0.7425761 0.005779751
vt 0.4953239 0.005779751
vt 0.9182505 0
vt 0.9182505 0.08591805
vt 0.9995394 0.08591805
vt 0.9995394 0
vt 0.9182505 0
vt 0.9182505 0.08591805
vt 0.9995394 0.08591805
vt 0.9995394 0
vt 0.4953239 0.1065979
vt 0.7425761 0.1065979
vt 0.7425761 0.005779751
vt 0.4953239 0.005779751
vt 0.9982141 0.1100133
vt 0.9982141 0.1100133
vt 0.9982141 0.1093874
vt 0.9982141 0.1093874
vt 0.9982141 0.1093874
vt 0.9982141 0.1093874
vt 0.9984797 0.1093874
vt 0.9984797 0.1093874
vt 0.9984797 0.1093874
vt 0.9984797 0.1093874
vt 0.9984797 0.1100133
vt 0.9984797 0.1100133
vt 0.9984797 0.1100133
vt 0.9984797 0.1100133
vt 0.9982141 0.1100133
vt 0.9982141 0.1100133
vt 0.9982141 0.1100133
vt 0.9983469 0.1097004
vt 0.9982141 0.1093874
vt 0.9984797 0.1100133
vt 0.9984797 0.1093874
vt 0.9982141 0.1100133
vt 0.9982141 0.1100133
vt 0.9982141 0.1093874
vt 0.9982141 0.1093874
vt 0.9984797 0.1100133
vt 0.9984797 0.1093874
vt 0.9984797 0.1100133
vt 0.9984797 0.1093874
vn 0 0 -1
vn 0 0 -1
vn 0 0 -1
vn 0 0 -1
vn 9.618716E-06 -4.986215E-06 -1
vn 9.618715E-06 -4.986215E-06 -1
vn -1 0 0
vn -1 0 0
vn -1 0 0
vn -1 0 0
vn -1 -2.254473E-06 1.380608E-07
vn -1 -2.254473E-06 1.380608E-07
vn -1 -6.899978E-06 1.728364E-05
vn -1 -2.254473E-06 1.380608E-07
vn -1 -1.781778E-05 0
vn -1 -5.621852E-06 4.548013E-05
vn -1 -5.621851E-06 4.548013E-05
vn -1 -1.145948E-05 2.104308E-05
vn 0 1 0
vn 0 1 0
vn 0 1 0
vn 0 1 0
vn 0 0 1
vn 0 0 1
vn 0 0 1
vn 0 0 1
vn 0 1 0
vn 0 1 0
vn 0 1 0
vn 0 1 0
vn 0 0 -1
vn 0 0 -1
vn 0 0 -1
vn 0 0 -1
vn 1 -2.824986E-06 0
vn 1 -2.824986E-06 0
vn 1 -2.824986E-06 0
vn 1 0 0
vn 1 -3.209144E-06 1.129383E-06
vn 1 -3.965161E-06 0
vn 1 0 0
vn 1 0 0
vn 0 0 1
vn 0 0 1
vn 0 0 1
vn 0 0 1
vn 0 0 1
vn 0 0 1
vn 0 -4.238045E-06 -1
vn 0 -4.238045E-06 -1
vn 0 -4.238045E-06 -1
vn 0 -4.238045E-06 -1
vn 1 -3.243521E-06 2.12329E-06
vn 1 -3.243521E-06 2.12329E-06
vn 1 -3.243521E-06 2.12329E-06
vn 1 -3.243521E-06 2.12329E-06
vn 0 0 1
vn 0 0 1
vn 0 0 1
vn 0 0 1
vn -1 -5.480451E-07 -1.592467E-06
vn -1 -5.480452E-07 -1.592468E-06
vn -1 -5.480452E-07 -1.592467E-06
vn -1 -5.480452E-07 -1.592467E-06
vn 0 -1.635813E-05 -1
vn 0 -1.635813E-05 -1
vn 0 -1.635813E-05 -1
vn 0 -1.635813E-05 -1
vn -1 3.21034E-06 -3.184951E-06
vn -1 3.210339E-06 -3.18495E-06
vn -1 3.21034E-06 -3.18495E-06
vn -1 3.21034E-06 -3.18495E-06
vn 1 -2.530474E-06 2.654102E-06
vn 1 -2.530475E-06 2.654102E-06
vn 1 -2.530474E-06 2.654102E-06
vn 1 -2.530475E-06 2.654102E-06
vn -1.577807E-05 8.179118E-06 1
vn -1.577808E-05 8.179117E-06 1
vn -1.577808E-05 8.179117E-06 1
vn -1.577808E-05 8.179117E-06 1
vn 0 0 -1
vn 0 0 -1
vn 0 0 -1
vn 0 0 -1
vn -1 2.560811E-06 -2.654123E-06
vn -1 2.560811E-06 -2.654123E-06
vn -1 2.560811E-06 -2.654123E-06
vn -1 2.560811E-06 -2.654123E-06
vn 1 -2.530419E-06 2.654086E-06
vn 1 -2.530419E-06 2.654086E-06
vn 1 -2.530419E-06 2.654087E-06
vn 1 -2.530419E-06 2.654087E-06
vn -2.366714E-05 1.635819E-05 1
vn -2.366714E-05 1.635819E-05 1
vn -2.366714E-05 1.635819E-05 1
vn -2.366714E-05 1.635819E-05 1
vn 0 -1.635814E-05 -1
vn 0 -1.635814E-05 -1
vn 0 -1.635814E-05 -1
vn 0 -1.635814E-05 -1
vn -1 1.503214E-06 -1.59246E-06
vn -1 1.503214E-06 -1.59246E-06
vn -1 1.503214E-06 -1.59246E-06
vn -1 1.503214E-06 -1.59246E-06
vn 1 -1.991705E-06 2.123261E-06
vn 1 -1.991705E-06 2.123261E-06
vn 1 -1.991705E-06 2.12326E-06
vn 1 -1.991705E-06 2.12326E-06
vn -1.57781E-05 8.179099E-06 1
vn -1.57781E-05 8.179099E-06 1
vn -1.57781E-05 8.179099E-06 1
vn -1.57781E-05 8.179099E-06 1
vn 0 -8.179069E-06 -1
vn 0 -8.179069E-06 -1
vn 0 -8.179069E-06 -1
vn 0 -8.179069E-06 -1
vn -1 -2.442548E-07 -2.6541E-06
vn -1 -2.442548E-07 -2.6541E-06
vn -1 -2.442548E-07 -2.6541E-06
vn -1 -2.442548E-07 -2.6541E-06
vn 1 -2.845319E-06 2.6541E-06
vn 1 -2.845319E-06 2.6541E-06
vn 1 -2.845319E-06 2.6541E-06
vn 1 -2.84532E-06 2.6541E-06
vn 0 0 1
vn 0 0 1
vn 0 0 1
vn 0 0 1
vn -1 0 0
vn -1 0 0
vn -1 0 0
vn -1 0 0
vn 0 0 1
vn 0 0 1
vn 0 0 1
vn 0 0 1
vn 1 0 0
vn 1 0 0
vn 1 0 0
vn 1 0 0
vn 0 0 -1
vn 0 0 -1
vn 0 0 -1
vn 0 0 -1
vn 0 1 0
vn 0 1 0
vn 0 1 0
vn 0 1 0
vn 0 1 0
vn 0 1 0
vn 0 1 0
vn 0 1 0
vn 0 1 0
vn 0 1 0
vn 0 1 1.439753E-05
vn 0 1 0
vn 0 1 1.439753E-05
g skyscraper_30_0
f 3/3/3 2/2/2 1/1/1
f 4/4/4 3/3/3 1/1/1
f 4/4/4 1/1/1 5/5/5
f 6/6/6 4/4/4 5/5/5
f 9/9/9 8/8/8 7/7/7
f 10/10/10 9/9/9 7/7/7
f 10/10/10 7/7/7 11/11/11
f 11/11/11 12/12/12 10/10/10
f 12/12/12 13/13/13 10/10/10
f 11/11/11 14/14/14 12/12/12
f 11/11/11 15/15/15 14/14/14
f 7/7/7 15/15/15 11/11/11
f 15/15/15 16/16/16 14/14/14
f 15/15/15 17/17/17 16/16/16
f 15/15/15 7/7/7 17/17/17
f 7/7/7 18/18/18 17/17/17
f 21/21/21 20/20/20 19/19/19
f 22/22/22 21/21/21 19/19/19
f 25/25/25 24/24/24 23/23/23
f 26/26/26 25/25/25 23/23/23
f 29/29/29 28/28/28 27/27/27
f 30/30/30 29/29/29 27/27/27
f 33/33/33 32/32/32 31/31/31
f 34/34/34 33/33/33 31/31/31
f 37/37/37 36/36/36 35/35/35
f 35/35/35 38/38/38 37/37/37
f 38/38/38 39/39/39 37/37/37
f 38/38/38 40/40/40 39/39/39
f 35/35/35 41/41/41 38/38/38
f 41/41/41 42/42/42 38/38/38
f 45/45/45 44/44/44 43/43/43
f 46/46/46 45/45/45 43/43/43
f 46/46/46 43/43/43 47/47/47
f 48/48/48 46/46/46 47/47/47
f 51/51/51 50/50/50 49/49/49
f 52/52/52 51/51/51 49/49/49
f 55/55/55 54/54/54 53/53/53
f 56/56/56 55/55/55 53/53/53
f 59/59/59 58/58/58 57/57/57
f 60/60/60 59/59/59 57/57/57
f 63/63/63 62/62/62 61/61/61
f 64/64/64 63/63/63 61/61/61
f 67/67/67 66/66/66 65/65/65
f 68/68/68 67/67/67 65/65/65
f 71/71/71 70/70/70 69/69/69
f 72/72/72 71/71/71 69/69/69
f 75/75/75 74/74/74 73/73/73
f 76/76/76 75/75/75 73/73/73
f 79/79/79 78/78/78 77/77/77
f 80/80/80 79/79/79 77/77/77
f 83/83/83 82/82/82 81/81/81
f 84/84/84 83/83/83 81/81/81
f 87/87/87 86/86/86 85/85/85
f 88/88/88 87/87/87 85/85/85
f 91/91/91 90/90/90 89/89/89
f 92/92/92 91/91/91 89/89/89
f 95/95/95 94/94/94 93/93/93
f 96/96/96 95/95/95 93/93/93
f 99/99/99 98/98/98 97/97/97
f 100/100/100 99/99/99 97/97/97
f 103/103/103 102/102/102 101/101/101
f 104/104/104 103/103/103 101/101/101
f 107/107/107 106/106/106 105/105/105
f 108/108/108 107/107/107 105/105/105
f 111/111/111 110/110/110 109/109/109
f 112/112/112 111/111/111 109/109/109
f 115/115/115 114/114/114 113/113/113
f 116/116/116 115/115/115 113/113/113
f 119/119/119 118/118/118 117/117/117
f 120/120/120 119/119/119 117/117/117
f 123/123/123 122/122/122 121/121/121
f 124/124/124 123/123/123 121/121/121
f 127/127/127 126/126/126 125/125/125
f 128/128/128 127/127/127 125/125/125
f 131/131/131 130/130/130 129/129/129
f 132/132/132 131/131/131 129/129/129
f 135/135/135 134/134/134 133/133/133
f 136/136/136 135/135/135 133/133/133
f 139/139/139 138/138/138 137/137/137
f 140/140/140 139/139/139 137/137/137
f 143/143/143 142/142/142 141/141/141
f 144/144/144 143/143/143 141/141/141
f 147/147/147 146/146/146 145/145/145
f 145/145/145 146/146/146 148/148/148
f 149/149/149 146/146/146 147/147/147
f 148/148/148 146/146/146 149/149/149
f 152/152/152 151/151/151 150/150/150
f 153/153/153 152/152/152 150/150/150
f 150/150/150 151/151/151 154/154/154
f 155/155/155 152/152/152 153/153/153
f 151/151/151 156/156/156 154/154/154
f 157/157/157 155/155/155 153/153/153
f 154/154/154 156/156/156 157/157/157
f 156/156/156 155/155/155 157/157/157
