g skyscraper_15
v -0.0002871347 222.6491 -44.11473
v -0.0002871347 338.2386 -44.11473
v -0.0002871347 338.2386 -3.922168E-05
v -0.0002090097 222.6491 -3.922168E-05
v -0.0002090097 222.6491 -3.922168E-05
v -0.0002871347 338.2386 -3.922168E-05
v 44.11432 338.2386 -3.922168E-05
v 44.11448 222.6491 -3.922168E-05
v -0.0002871347 338.2386 -44.11473
v -0.0002871347 352.9447 -44.11473
v -0.0002871347 352.9447 -3.922168E-05
v -0.0002871347 338.2386 -3.922168E-05
v -0.0002871347 338.2386 -3.922168E-05
v -0.0002871347 352.9447 -3.922168E-05
v 44.11432 352.9447 -3.922168E-05
v 44.11432 338.2386 -3.922168E-05
v 6.287838 352.9447 -35.40472
v 6.287838 358.8639 -35.40442
v 6.287838 358.8639 -6.914102
v 6.287838 352.9447 -6.914102
v 6.287838 352.9447 -6.914102
v 6.287838 358.8639 -6.914102
v 34.77846 358.8639 -6.913789
v 34.77846 352.9447 -6.913789
v 44.11432 222.6491 -44.11473
v -0.0002871347 338.2386 -44.11473
v -0.0002871347 222.6491 -44.11473
v 44.11432 338.2386 -44.11473
v -0.0002871347 352.9447 -44.11473
v 44.11432 352.9447 -44.11473
v 44.11432 352.9447 -44.11473
v 44.11432 352.9447 -3.922168E-05
v -0.0002871347 352.9447 -3.922168E-05
v -0.0002871347 352.9447 -44.11473
v 34.77846 352.9447 -6.913789
v 34.77846 358.8639 -6.913789
v 34.77838 358.8639 -35.40442
v 34.77838 352.9447 -35.40442
v 34.77838 358.8639 -35.40442
v 34.77846 358.8639 -6.913789
v 6.287838 358.8639 -6.914102
v 6.287838 358.8639 -35.40442
v 34.77838 352.9447 -35.40442
v 34.77838 358.8639 -35.40442
v 6.287838 358.8639 -35.40442
v 6.287838 352.9447 -35.40472
v 44.11448 222.6491 -3.922168E-05
v 44.11432 338.2386 -44.11473
v 44.11432 222.6491 -44.11473
v 44.11432 338.2386 -3.922168E-05
v 44.11432 352.9447 -44.11473
v 44.11432 352.9447 -3.922168E-05
v -0.0002871347 111.3246 -44.11473
v -0.0002871347 222.6491 -44.11473
v -0.0002090097 222.6491 -3.922168E-05
v -0.0001308847 111.3246 -3.922168E-05
v -0.0001308847 111.3246 -3.922168E-05
v -0.0002090097 222.6491 -3.922168E-05
v 44.11448 222.6491 -3.922168E-05
v 44.11456 111.3246 -3.922168E-05
v 44.11432 111.3246 -44.11473
v 44.11432 222.6491 -44.11473
v -0.0002871347 222.6491 -44.11473
v -0.0002871347 111.3246 -44.11473
v 44.11456 111.3246 -3.922168E-05
v 44.11448 222.6491 -3.922168E-05
v 44.11432 222.6491 -44.11473
v 44.11432 111.3246 -44.11473
v -0.0002090097 2.735128E-06 -44.11473
v -0.0002871347 111.3246 -44.11473
v -0.0001308847 111.3246 -3.922168E-05
v 2.536532E-05 2.735128E-06 -3.922168E-05
v 2.536532E-05 2.735128E-06 -3.922168E-05
v -0.0001308847 111.3246 -3.922168E-05
v 44.11456 111.3246 -3.922168E-05
v 44.11463 2.735128E-06 -0.0003517217
v 44.1144 2.735128E-06 -44.11473
v 44.11432 111.3246 -44.11473
v -0.0002871347 111.3246 -44.11473
v -0.0002090097 2.735128E-06 -44.11473
v 44.11463 2.735128E-06 -0.0003517217
v 44.11456 111.3246 -3.922168E-05
v 44.11432 111.3246 -44.11473
v 44.1144 2.735128E-06 -44.11473
vt 0.4185434 0.1088414
vt 0.7801554 0.1088414
vt 0.7801554 0.004241318
vt 0.4185434 0.004241331
vt 0.4185434 0.1088414
vt 0.7801554 0.1088414
vt 0.7801554 0.004241318
vt 0.4185434 0.004241331
vt 0.7801554 0.004241318
vt 0.826162 0.004241318
vt 0.826162 0.1088414
vt 0.7801554 0.1088414
vt 0.7801554 0.004241318
vt 0.826162 0.004241318
vt 0.826162 0.1088414
vt 0.7801554 0.1088414
vt 0.7801554 0.1088414
vt 0.826162 0.1088414
vt 0.826162 0.004241318
vt 0.7801554 0.004241318
vt 0.7801554 0.004241318
vt 0.826162 0.004241318
vt 0.826162 0.1088414
vt 0.7801554 0.1088414
vt 0.4185434 0.1088414
vt 0.7801554 0.004241318
vt 0.4185434 0.004241331
vt 0.7801554 0.1088414
vt 0.826162 0.004241317
vt 0.826162 0.1088414
vt 0.4996695 0.273698
vt 0.4996695 0.2735134
vt 0.4994848 0.2735134
vt 0.4994848 0.273698
vt 0.7801554 0.1088414
vt 0.826162 0.1088414
vt 0.826162 0.004241317
vt 0.7801554 0.004241318
vt 0.4996695 0.273698
vt 0.4996695 0.2735134
vt 0.4994848 0.2735134
vt 0.4994848 0.273698
vt 0.7801554 0.1088414
vt 0.826162 0.1088414
vt 0.826162 0.004241317
vt 0.7801554 0.004241318
vt 0.4185434 0.1088414
vt 0.7801554 0.004241318
vt 0.4185434 0.004241331
vt 0.7801554 0.1088414
vt 0.826162 0.004241317
vt 0.826162 0.1088414
vt 0.4185434 0.1088414
vt 0.7668125 0.1088414
vt 0.7668125 0.004241319
vt 0.4185434 0.004241331
vt 0.4185434 0.1088414
vt 0.7668125 0.1088414
vt 0.7668125 0.004241319
vt 0.4185434 0.004241331
vt 0.4185434 0.1088414
vt 0.7668125 0.1088414
vt 0.7668125 0.004241319
vt 0.4185434 0.004241331
vt 0.4185434 0.1088414
vt 0.7668125 0.1088414
vt 0.7668125 0.004241319
vt 0.4185434 0.004241331
vt 0.4185434 0.1088414
vt 0.7668125 0.1088414
vt 0.7668125 0.004241319
vt 0.4185434 0.004241331
vt 0.4185434 0.1088414
vt 0.7668125 0.1088414
vt 0.7668125 0.004241319
vt 0.4185434 0.004241331
vt 0.4185434 0.1088414
vt 0.7668125 0.1088414
vt 0.7668125 0.004241319
vt 0.4185434 0.004241331
vt 0.4185434 0.1088414
vt 0.7668125 0.1088414
vt 0.7668125 0.004241319
vt 0.4185434 0.004241331
vn -1 -3.459903E-07 2.455248E-06
vn -1 -3.459903E-07 2.455248E-06
vn -1 -3.459903E-07 2.455248E-06
vn -1 -3.459903E-07 2.455248E-06
vn 9.046595E-07 4.099571E-07 1
vn 9.046595E-07 4.099571E-07 1
vn 9.046595E-07 4.099571E-07 1
vn 9.046595E-07 4.099571E-07 1
vn -1 1.463714E-06 0
vn -1 1.463714E-06 0
vn -1 1.463714E-06 0
vn -1 1.463714E-06 0
vn -5.925516E-07 4.603202E-07 1
vn -5.925516E-07 4.603202E-07 1
vn -5.925516E-07 4.603202E-07 1
vn -5.925516E-07 4.603202E-07 1
vn -1 -4.496918E-06 0
vn -1 -4.496918E-06 0
vn -1 -4.496918E-06 0
vn -1 -4.496918E-06 0
vn -1.13976E-06 0 1
vn -1.13976E-06 0 1
vn -1.13976E-06 0 1
vn -1.13976E-06 0 1
vn -1.206217E-06 -3.513894E-07 -1
vn -6.031083E-07 -6.360162E-07 -1
vn -1.206217E-06 -3.513894E-07 -1
vn -6.031083E-07 -6.360162E-07 -1
vn 0 -9.206431E-07 -1
vn 0 -9.206431E-07 -1
vn 0 1 0
vn 0 1 0
vn 0 1 0
vn 0 1 0
vn 1 0 -1.900844E-06
vn 1 0 -1.900844E-06
vn 1 0 -1.900844E-06
vn 1 0 -1.900844E-06
vn 0 1 1.045146E-07
vn 0 1 1.045146E-07
vn 0 1 1.045146E-07
vn 0 1 1.045146E-07
vn 0 -2.287322E-06 -1
vn 0 -2.287322E-06 -1
vn 0 -2.287322E-06 -1
vn 0 -2.287322E-06 -1
vn 1 -8.219162E-07 -1.227625E-06
vn 1 -4.109581E-07 -6.138123E-07
vn 1 -8.219162E-07 -1.227625E-06
vn 1 -4.109581E-07 -6.138123E-07
vn 1 0 0
vn 1 0 0
vn -1 -3.459903E-07 2.455248E-06
vn -1 -4.886936E-07 2.656424E-06
vn -1 -4.886936E-07 2.656424E-06
vn -1 -3.459903E-07 2.455248E-06
vn 9.046595E-07 4.099571E-07 1
vn 0 0 1
vn 0 0 1
vn 9.046595E-07 4.099571E-07 1
vn -1.206217E-06 -3.513894E-07 -1
vn 0 0 -1
vn 0 0 -1
vn -1.206217E-06 -3.513894E-07 -1
vn 1 -8.219162E-07 -1.227625E-06
vn 1 4.886936E-07 -4.427373E-06
vn 1 4.886936E-07 -4.427373E-06
vn 1 -8.219162E-07 -1.227625E-06
vn -1 -3.459903E-07 2.455248E-06
vn -1 -9.773871E-07 4.427377E-06
vn -1 -9.773871E-07 4.427377E-06
vn -1 -3.459903E-07 2.455248E-06
vn 9.046595E-07 4.099571E-07 1
vn 0 -1.40355E-06 1
vn 0 -1.40355E-06 1
vn 9.046595E-07 4.099571E-07 1
vn -1.206217E-06 -3.513894E-07 -1
vn 0 0 -1
vn 0 0 -1
vn -1.206217E-06 -3.513894E-07 -1
vn 1 -8.219162E-07 -1.227625E-06
vn 1 6.663585E-07 -5.312852E-06
vn 1 6.663585E-07 -5.312852E-06
vn 1 -8.219162E-07 -1.227625E-06
g skyscraper_15_0
f 3/3/3 2/2/2 1/1/1
f 4/4/4 3/3/3 1/1/1
f 7/7/7 6/6/6 5/5/5
f 8/8/8 7/7/7 5/5/5
f 11/11/11 10/10/10 9/9/9
f 12/12/12 11/11/11 9/9/9
f 15/15/15 14/14/14 13/13/13
f 16/16/16 15/15/15 13/13/13
f 19/19/19 18/18/18 17/17/17
f 20/20/20 19/19/19 17/17/17
f 23/23/23 22/22/22 21/21/21
f 24/24/24 23/23/23 21/21/21
f 27/27/27 26/26/26 25/25/25
f 26/26/26 28/28/28 25/25/25
f 26/26/26 29/29/29 28/28/28
f 29/29/29 30/30/30 28/28/28
f 33/33/33 32/32/32 31/31/31
f 34/34/34 33/33/33 31/31/31
f 37/37/37 36/36/36 35/35/35
f 38/38/38 37/37/37 35/35/35
f 41/41/41 40/40/40 39/39/39
f 42/42/42 41/41/41 39/39/39
f 45/45/45 44/44/44 43/43/43
f 46/46/46 45/45/45 43/43/43
f 49/49/49 48/48/48 47/47/47
f 48/48/48 50/50/50 47/47/47
f 48/48/48 51/51/51 50/50/50
f 51/51/51 52/52/52 50/50/50
f 55/55/55 54/54/54 53/53/53
f 56/56/56 55/55/55 53/53/53
f 59/59/59 58/58/58 57/57/57
f 60/60/60 59/59/59 57/57/57
f 63/63/63 62/62/62 61/61/61
f 64/64/64 63/63/63 61/61/61
f 67/67/67 66/66/66 65/65/65
f 68/68/68 67/67/67 65/65/65
f 71/71/71 70/70/70 69/69/69
f 72/72/72 71/71/71 69/69/69
f 75/75/75 74/74/74 73/73/73
f 76/76/76 75/75/75 73/73/73
f 79/79/79 78/78/78 77/77/77
f 80/80/80 79/79/79 77/77/77
f 83/83/83 82/82/82 81/81/81
f 84/84/84 83/83/83 81/81/81
