g skyscraper_33
v 39.69871 408.2962 44.06137
v 1.308867 408.2961 44.00637
v 1.368945 408.296 1.519492
v 39.75879 408.296 1.573242
v 3.866929E-05 306.8222 0.0001171712
v 3.866929E-05 410.2842 0.0001171712
v -0.06433633 410.2843 45.52199
v -0.06433633 306.8223 45.52199
v 41.13191 306.8223 0.05824217
v 41.13199 410.2842 0.05761717
v 3.866929E-05 410.2842 0.0001171712
v 3.866929E-05 306.8222 0.0001171712
v 41.06762 306.8224 45.58012
v 41.0677 410.2844 45.58012
v 41.13199 410.2842 0.05761717
v 41.13191 306.8223 0.05824217
v -0.06433633 306.8223 45.52199
v -0.06433633 410.2843 45.52199
v 41.0677 410.2844 45.58012
v 41.06762 306.8224 45.58012
v 39.69871 410.2844 44.06137
v 39.69871 408.2962 44.06137
v 39.75879 408.296 1.573242
v 39.75879 410.2842 1.573242
v 39.75879 410.2842 1.573242
v 39.75879 408.296 1.573242
v 1.368945 408.296 1.519492
v 1.368945 410.2842 1.519492
v 1.368945 410.2842 1.519492
v 1.368945 408.296 1.519492
v 1.308867 408.2961 44.00637
v 1.308867 410.2843 44.00637
v 1.308867 410.2843 44.00637
v 1.308867 408.2961 44.00637
v 39.69871 408.2962 44.06137
v 39.69871 410.2844 44.06137
v 3.866929E-05 202.4658 0.0001171712
v 3.866929E-05 306.8222 0.0001171712
v -0.06433633 306.8223 45.52199
v -0.06433633 202.4659 45.52199
v -0.06433633 202.4659 45.52199
v -0.06433633 306.8223 45.52199
v 41.06762 306.8224 45.58012
v 41.06762 202.466 45.58012
v 41.06762 202.466 45.58012
v 41.06762 306.8224 45.58012
v 41.13191 306.8223 0.05824217
v 41.13191 202.4659 0.05824217
v 41.13191 202.4659 0.05824217
v 41.13191 306.8223 0.05824217
v 3.866929E-05 306.8222 0.0001171712
v 3.866929E-05 202.4658 0.0001171712
v 3.866929E-05 2.735128E-06 0.0001171712
v 3.866929E-05 104.7124 0.0001171712
v -0.06433633 104.7125 45.52199
v -0.0642582 0.0001199226 45.52199
v -0.0642582 0.0001199226 45.52199
v -0.06433633 104.7125 45.52199
v 41.06762 104.7125 45.58074
v 41.06762 0.0001199226 45.58074
v 41.06762 0.0001199226 45.58074
v 41.06762 104.7125 45.58074
v 41.13191 104.7125 0.05824217
v 41.13191 4.179763E-05 0.05824217
v 41.13191 4.179763E-05 0.05824217
v 41.13191 104.7125 0.05824217
v 3.866929E-05 104.7124 0.0001171712
v 3.866929E-05 2.735128E-06 0.0001171712
v 3.866929E-05 104.7124 0.0001171712
v 3.866929E-05 202.4658 0.0001171712
v -0.06433633 202.4659 45.52199
v -0.06433633 104.7125 45.52199
v -0.06433633 104.7125 45.52199
v -0.06433633 202.4659 45.52199
v 41.06762 202.466 45.58012
v 41.06762 104.7125 45.58074
v 41.06762 104.7125 45.58074
v 41.06762 202.466 45.58012
v 41.13191 202.4659 0.05824217
v 41.13191 104.7125 0.05824217
v 41.13191 104.7125 0.05824217
v 41.13191 202.4659 0.05824217
v 3.866929E-05 202.4658 0.0001171712
v 3.866929E-05 104.7124 0.0001171712
v 41.0677 410.2844 45.58012
v 39.69871 410.2844 44.06137
v 39.75879 410.2842 1.573242
v 41.13199 410.2842 0.05761717
v -0.06433633 410.2843 45.52199
v 1.368945 410.2842 1.519492
v 1.308867 410.2843 44.00637
v 3.866929E-05 410.2842 0.0001171712
vt 0.5448848 0.1906507
vt 0.5442089 0.1906507
vt 0.5442089 0.1915529
vt 0.5448848 0.1915529
vt 0.4015835 0.2203228
vt 0.6153173 0.2203228
vt 0.6153173 0.1178845
vt 0.4015835 0.1178845
vt 0.4015835 0.2203228
vt 0.6153173 0.2203228
vt 0.6153173 0.1178845
vt 0.4015835 0.1178845
vt 0.4015835 0.2203228
vt 0.6153173 0.2203228
vt 0.6153173 0.1178845
vt 0.4015835 0.1178845
vt 0.4015835 0.2203228
vt 0.6153173 0.2203228
vt 0.6153173 0.1178845
vt 0.4015835 0.1178845
vt 0.5448848 0.1906507
vt 0.5448848 0.1906507
vt 0.5448848 0.1915529
vt 0.5448848 0.1915529
vt 0.5448848 0.1915529
vt 0.5448848 0.1915529
vt 0.5442089 0.1915529
vt 0.5442089 0.1915529
vt 0.5442089 0.1915529
vt 0.5442089 0.1915529
vt 0.5442089 0.1906507
vt 0.5442089 0.1906507
vt 0.5442089 0.1906507
vt 0.5442089 0.1906507
vt 0.5448848 0.1906507
vt 0.5448848 0.1906507
vt 0.3984736 0.2203228
vt 0.6045745 0.2203228
vt 0.6045746 0.1178845
vt 0.3984736 0.1178845
vt 0.3984736 0.2203228
vt 0.6045746 0.2203228
vt 0.6045745 0.1178845
vt 0.3984736 0.1178845
vt 0.3984736 0.2203228
vt 0.6045745 0.2203228
vt 0.6045745 0.1178845
vt 0.3984736 0.1178845
vt 0.3984736 0.2203228
vt 0.6045745 0.2203228
vt 0.6045745 0.1178845
vt 0.3984736 0.1178845
vt 0.3977706 0.2203228
vt 0.6045745 0.2203228
vt 0.6045746 0.1178845
vt 0.3977706 0.1178845
vt 0.3977706 0.2203228
vt 0.6045746 0.2203228
vt 0.6045745 0.1178845
vt 0.3977706 0.1178845
vt 0.3977706 0.2203228
vt 0.6045745 0.2203228
vt 0.6045745 0.1178845
vt 0.3977706 0.1178845
vt 0.3977706 0.2203228
vt 0.6045745 0.2203228
vt 0.6045745 0.1178845
vt 0.3977706 0.1178845
vt 0.4015835 0.2203228
vt 0.6027892 0.2203228
vt 0.6027892 0.1178845
vt 0.4015835 0.1178845
vt 0.4015835 0.2203228
vt 0.6027892 0.2203228
vt 0.6027892 0.1178845
vt 0.4015835 0.1178845
vt 0.4015835 0.2203228
vt 0.6027892 0.2203228
vt 0.6027892 0.1178845
vt 0.4015835 0.1178845
vt 0.4015835 0.2203228
vt 0.6027892 0.2203228
vt 0.6027892 0.1178845
vt 0.4015835 0.1178845
vt 0.5448848 0.1906507
vt 0.5448848 0.1906507
vt 0.5448848 0.1915529
vt 0.5448848 0.1915529
vt 0.5442089 0.1906507
vt 0.5442089 0.1915529
vt 0.5442089 0.1906507
vt 0.5442089 0.1915529
vn -1.013568E-06 1 -1.961877E-06
vn -1.013568E-06 1 -1.961877E-06
vn -1.013568E-06 1 -1.961877E-06
vn -1.013568E-06 1 -1.961877E-06
vn -0.999999 0 -0.001414152
vn -0.999999 0 -0.001414152
vn -0.999999 0 -0.001414152
vn -0.999999 0 -0.001414152
vn 0.001407653 -3.020927E-06 -0.999999
vn 0.001407653 -3.020927E-06 -0.999999
vn 0.001407653 -3.020927E-06 -0.999999
vn 0.001407653 -3.020927E-06 -0.999999
vn 0.999999 -6.794357E-07 0.001412436
vn 0.999999 -6.794357E-07 0.001412436
vn 0.999999 -6.794357E-07 0.001412436
vn 0.999999 -6.794358E-07 0.001412436
vn -0.001407651 0 0.999999
vn -0.001407651 0 0.999999
vn -0.001407651 0 0.999999
vn -0.001407651 0 0.999999
vn -0.999999 0 -0.001413999
vn -0.999999 0 -0.001413999
vn -0.999999 0 -0.001413999
vn -0.999999 0 -0.001413999
vn -0.001404493 0 0.999999
vn -0.001404493 0 0.999999
vn -0.001404493 0 0.999999
vn -0.001404493 0 0.999999
vn 0.999999 0 0.001414008
vn 0.999999 0 0.001414008
vn 0.999999 0 0.001414008
vn 0.999999 0 0.001414008
vn 0.001425426 0 -0.999999
vn 0.001425426 0 -0.999999
vn 0.001425426 0 -0.999999
vn 0.001425426 0 -0.999999
vn -0.999999 0 -0.001414142
vn -0.999999 0 -0.001414142
vn -0.999999 0 -0.001414142
vn -0.999999 0 -0.001414142
vn -0.001395587 0 0.999999
vn -0.001395587 0 0.999999
vn -0.001395587 0 0.999999
vn -0.001395587 0 0.999999
vn 0.999999 0 0.001412441
vn 0.999999 0 0.001412441
vn 0.999999 0 0.001412441
vn 0.999999 0 0.001412441
vn 0.001407518 0 -0.999999
vn 0.001407518 0 -0.999999
vn 0.001407518 0 -0.999999
vn 0.001407518 0 -0.999999
vn -0.999999 -3.356602E-07 -0.001413291
vn -0.999999 -3.356602E-07 -0.001413291
vn -0.999999 -3.356602E-07 -0.001413291
vn -0.999999 -3.356602E-07 -0.001413291
vn -0.001426506 0 0.999999
vn -0.001426507 0 0.999999
vn -0.001426506 0 0.999999
vn -0.001426506 0 0.999999
vn 0.999999 0 0.001412418
vn 0.999999 0 0.001412418
vn 0.999999 0 0.001412418
vn 0.999999 0 0.001412418
vn 0.001402733 0 -0.999999
vn 0.001402733 0 -0.999999
vn 0.001402733 0 -0.999999
vn 0.001402733 0 -0.999999
vn -0.999999 0 -0.001414162
vn -0.999999 0 -0.001414162
vn -0.999999 0 -0.001414162
vn -0.999999 0 -0.001414162
vn -0.001413452 3.197053E-06 0.999999
vn -0.001413452 3.197053E-06 0.999999
vn -0.001413452 3.197053E-06 0.999999
vn -0.001413452 3.197053E-06 0.999999
vn 0.999999 0 0.001412429
vn 0.999999 0 0.001412429
vn 0.999999 0 0.001412429
vn 0.999999 0 0.001412429
vn 0.001413455 0 -0.999999
vn 0.001413455 0 -0.999999
vn 0.001413455 0 -0.999999
vn 0.001413455 0 -0.999999
vn -1.044097E-06 1 2.470863E-06
vn -9.598813E-07 1 1.939003E-06
vn -4.790086E-07 1 8.019605E-06
vn -5.213997E-07 1 9.088787E-06
vn -1.044842E-06 1 3.248389E-06
vn -4.794402E-07 1 8.866476E-06
vn -9.601988E-07 1 2.784903E-06
vn -5.217761E-07 1 9.8639E-06
g skyscraper_33_0
f 3/3/3 2/2/2 1/1/1
f 4/4/4 3/3/3 1/1/1
f 7/7/7 6/6/6 5/5/5
f 8/8/8 7/7/7 5/5/5
f 11/11/11 10/10/10 9/9/9
f 12/12/12 11/11/11 9/9/9
f 15/15/15 14/14/14 13/13/13
f 16/16/16 15/15/15 13/13/13
f 19/19/19 18/18/18 17/17/17
f 20/20/20 19/19/19 17/17/17
f 23/23/23 22/22/22 21/21/21
f 24/24/24 23/23/23 21/21/21
f 27/27/27 26/26/26 25/25/25
f 28/28/28 27/27/27 25/25/25
f 31/31/31 30/30/30 29/29/29
f 32/32/32 31/31/31 29/29/29
f 35/35/35 34/34/34 33/33/33
f 36/36/36 35/35/35 33/33/33
f 39/39/39 38/38/38 37/37/37
f 40/40/40 39/39/39 37/37/37
f 43/43/43 42/42/42 41/41/41
f 44/44/44 43/43/43 41/41/41
f 47/47/47 46/46/46 45/45/45
f 48/48/48 47/47/47 45/45/45
f 51/51/51 50/50/50 49/49/49
f 52/52/52 51/51/51 49/49/49
f 55/55/55 54/54/54 53/53/53
f 56/56/56 55/55/55 53/53/53
f 59/59/59 58/58/58 57/57/57
f 60/60/60 59/59/59 57/57/57
f 63/63/63 62/62/62 61/61/61
f 64/64/64 63/63/63 61/61/61
f 67/67/67 66/66/66 65/65/65
f 68/68/68 67/67/67 65/65/65
f 71/71/71 70/70/70 69/69/69
f 72/72/72 71/71/71 69/69/69
f 75/75/75 74/74/74 73/73/73
f 76/76/76 75/75/75 73/73/73
f 79/79/79 78/78/78 77/77/77
f 80/80/80 79/79/79 77/77/77
f 83/83/83 82/82/82 81/81/81
f 84/84/84 83/83/83 81/81/81
f 87/87/87 86/86/86 85/85/85
f 88/88/88 87/87/87 85/85/85
f 85/85/85 86/86/86 89/89/89
f 90/90/90 87/87/87 88/88/88
f 86/86/86 91/91/91 89/89/89
f 92/92/92 90/90/90 88/88/88
f 89/89/89 91/91/91 92/92/92
f 91/91/91 90/90/90 92/92/92
